<?xml version="1.0" encoding="utf-8"?>
<!-- Generator: Adobe Illustrator 23.0.4, SVG Export Plug-In . SVG Version: 6.00 Build 0)  -->
<svg version="1.1" id="Layer_1" xmlns="http://www.w3.org/2000/svg" xmlns:xlink="http://www.w3.org/1999/xlink" x="0px" y="0px"
	 viewBox="0 0 1055 762.7" style="enable-background:new 0 0 1055 762.7;" xml:space="preserve">
<style type="text/css">
	.st0{fill:none;}
	.st1{fill:#FFFFFF;}
	.st2{enable-background:new    ;}
</style>
<g id="_2t7p5T.tif">
	<path class="st0" d="M0,712.1V0h638.8c0.6,3.4,0.7,7,1.8,10.3c17.8,57.8,35.4,115.7,54,173.3c3.5,10.9,2.2,17.2-8.5,21.2
		c-31.3,11.8-62.4,23.9-93.9,35.1c-4.4,1.6-11.5,0.1-15.7-2.6c-21.6-13.8-47.8-8.8-62.9,12.9c-14.9,21.3-11.1,45.8,9.4,61.2
		c31.6,23.7,67.2,8.9,73.1-31.3c1.9-13.1,7.4-22.9,18.7-27.8c20.7-9,41.5-18.8,63.2-23.8c46-10.7,55.5-7.2,76,32.7
		c10.6,20.6,18,42.9,27.1,65.3l15.3-6.1c-14.5-32-28-62.6-42.2-92.9c-3.5-7.6-3.9-12.4,4.6-16.6c10.9-5.3,21.5-11.4,31.9-17.6
		C842.9,161.8,895,130.4,947,98.7c3.4-2,6-5.2,9-7.9c-4.5-1.4-9.4-1.1-13.7,0.8c-29.2,12.4-58.5,24.8-87.6,37.5
		c-35.8,15.7-71.5,31.7-107.2,47.5c-10.1,4.5-16.7,1.8-21.7-8.7c-27-56.2-54.5-112-81.8-167.9h411v374.4
		c-8.5-21.9-26-33.4-47.6-38.6c-45.7-11-90-6.3-132,15.3c-21.2,11-37.7,26.5-43.6,50.8c-4.3,17.7,6.6,31.8,24.8,33.7
		c29.6,3.1,67-31.7,48.2-64c-4.2-7.3-2.6-14.1,5.3-17.3c10.7-4.3,21.7-9,33-10.7c22.9-3.5,33.8,8.2,27.8,30.6
		c-6.4,23.8-15.3,47-22.6,68.7c-29.8,4.3-58,7.3-85.7,12.7c-43.6,8.5-76.7,31.8-94.7,73.7c-13.8,32.1-1.2,62.7,30.9,70.8
		c35.7,9,70.1,5.2,100.1-19c2.9-2.3,6-4.4,9-6.6l-1.4,4c9.5,7.3,18,17.5,28.8,21.4c29.5,10.6,81-6.7,99.7-31.6
		c1.4-1.9,0.8-5.3,1.2-8c-2.7,0.4-5.9,0-8,1.3c-4,2.5-7,6.8-11.1,8.9s-9.3,2.9-14,4.2c-0.7-5.3-1.9-10.5-2-15.8
		c-0.1-2.9,1.6-5.8,2.5-8.7c11.3-34.2,22.5-68.6,34.2-102.7c5.1-15,11.4-29.6,17.2-44.4v340.3H62.8c10.7-3.4,21.7-5.8,31.9-10.2
		c49.1-21.2,77-61.4,94-109.8c31.9-90.7,62.5-181.9,93.6-272.9c1.8-5.2,2.8-10.6,3.5-13.2c-41.9,1.8-83.4,3.4-125,5.8
		c-4,0.2-7.8,5.4-11.7,8.2l2.3,3.7l27.5,1.3c-1.4,4.8-2.1,8.2-3.2,11.4c-27.7,81.6-55.4,163.2-83.1,244.9
		c-6.5,19.2-10.7,38.3-6.5,58.9C89.8,689.7,86,707.1,74,722c-8.4,10.5-18.3,12.7-29.4,6.3c3.6-2.8,7-5.4,10.3-8.1
		c14.8-11.8,20.8-38,11.2-49c-9.9-11.5-34.6-10-47.8,5.5C10,686.7,6,700.2,0,712.1z M501.1,582.8l-6.9,14.7
		c54,0,105.4,0.2,156.8-0.4c3.4,0,6.7-5.5,10-8.5c-0.8-1.5-1.5-2.9-2.3-4.4h-28.9c2.5-7.4,4.1-12.8,5.9-18
		c17.8-51.4,34.6-103.2,53.8-154c10.7-28.5,31.5-49.2,64.4-61.7c-4.3,5-6.5,6.8-7.9,9.2c-7.4,13-17.1,25.5-21.1,39.6
		c-7.1,24.5,7.7,40.7,33.4,39.9c35.9-1.1,72-41.7,68.8-77.3c-1.6-18-15.5-31.2-33.9-31.7c-28.1-0.8-51.8,9.9-72,28.8
		c-6.3,6-11.9,12.8-17.8,19.2l-2.8-2.1l13.7-42.8c-8.6,1.8-14.8,3.9-21.1,4.3c-33.9,2.1-67.8,3.8-101.7,5.3
		c-8.3,0.4-14.5,1.4-12.9,13.5h29.1c-25.5,75.2-50.3,148.5-75.4,221.7c-0.9,2.6-4.6,5.9-7,6c-8.1,0.3-16.3-0.6-24.5-1.1
		c3.7-4,7.7-7.7,10.8-12.1c2.2-3,3.2-6.8,4.7-10.3c-3.7,1-7.5,1.6-11,3c-7.9,3.2-15.7,6.7-23.5,10.2c0.7-8.6-0.2-17.8,2.4-25.8
		c15.2-46.8,31.8-93.1,46.9-140c10.7-33.2-0.3-57.5-33.5-68.4c-56.6-18.5-111-11.5-160.6,22.9c-13.9,9.5-23.3,24.2-26,40.8
		c-3.1,17.9,7.2,30.4,25.1,32.5c26,3,66.3-26.8,48.9-62.6c-3.9-8-3.2-14.8,4.3-19.1c14.2-8.2,29.5-12.8,46.3-10
		c11.5,1.9,16.7,8.8,15.6,20.1c-0.5,6.5-1.7,12.9-3.6,19.2c-5.5,17.4-12.3,34.5-17.4,52c-2.3,8-6.3,9.2-13.8,9.9
		c-36.5,3.4-73.4,5.2-107.4,20.6c-30.3,13.7-52.2,36-62.9,67.9c-12,36,5.5,63.8,43.1,68.9c36.5,4.9,70.1-1.5,98.6-29.6
		c6,16.6,16.4,26.4,32.5,28.5c19.8,2.6,39.2,1.2,57.6-7.5C485.7,590.5,493.4,586.6,501.1,582.8z M249,301.3
		c31.9-0.1,66.3-28.2,72.6-59.4c5-24.6-8.4-43.9-31.8-45.7c-35.3-2.8-73.6,28.6-77.6,63.7C209.4,284.7,224.1,301.4,249,301.3z"/>
	<path class="st1" d="M1055,403.1c-5.8,14.8-12,29.4-17.2,44.4c-11.7,34.1-22.8,68.5-34.2,102.7c-1,2.9-2.6,5.8-2.5,8.7
		c0.1,5.3,1.3,10.5,2,15.8c4.7-1.3,9.8-2,14-4.2s7.1-6.4,11.1-8.9c2.1-1.3,5.3-0.9,8-1.3c-0.3,2.7,0.3,6.1-1.2,8
		c-18.8,24.9-70.2,42.2-99.7,31.6c-10.8-3.9-19.2-14.1-28.8-21.4l1.4-4c-3,2.2-6.1,4.3-9,6.6c-30,24.1-64.4,28-100.1,19
		c-32.1-8.1-44.7-38.7-30.9-70.8c18-41.9,51.1-65.2,94.7-73.7c27.7-5.4,55.9-8.4,85.7-12.7c7.3-21.7,16.2-44.9,22.6-68.7
		c6-22.5-4.9-34.1-27.8-30.6c-11.3,1.7-22.3,6.4-33,10.7c-8,3.2-9.5,10-5.3,17.3c18.8,32.3-18.6,67.1-48.2,64
		c-18.1-1.9-29-16-24.8-33.7c5.9-24.3,22.3-39.9,43.6-50.8c42-21.6,86.2-26.3,132-15.3c21.6,5.2,39.1,16.7,47.6,38.6L1055,403.1z
		 M942.4,459.9c-19.8-4-45.3,2.1-54.2,14.5c-19.7,27.4-29.9,58.8-33.8,92.1c-1.5,12.5,7.8,19.8,20.1,17.3
		c15.1-3.2,28.7-10.4,34.2-25.4C920.5,526.1,931,493.5,942.4,459.9L942.4,459.9z"/>
	<path class="st1" d="M0,712.1c6-11.8,10-25.3,18.3-35.1c13.2-15.5,37.9-16.9,47.8-5.5c9.5,11,3.6,37.1-11.2,49
		c-3.3,2.7-6.7,5.3-10.3,8.1c11.2,6.4,21,4.2,29.4-6.3c11.9-14.9,15.8-32.4,12.1-50.6c-4.2-20.7,0-39.8,6.5-58.9
		c27.7-81.6,55.4-163.2,83.1-244.9c1.1-3.2,1.9-6.6,3.2-11.4l-27.5-1.3l-2.3-3.7c3.9-2.9,7.6-8,11.7-8.2c41.5-2.4,83.1-3.9,125-5.8
		c-0.7,2.6-1.7,8-3.5,13.2c-31.1,91-61.7,182.1-93.6,272.9c-17,48.3-44.8,88.6-93.9,109.8c-10.2,4.4-21.2,6.9-31.9,10.2H31.4
		C18,738.2,4.7,732.9,0,717.3V712.1z"/>
	<path class="st1" d="M644,0c27.3,55.9,54.8,111.7,81.8,167.8c5,10.5,11.6,13.2,21.7,8.7c35.8-15.8,71.5-31.8,107.3-47.5
		c29.1-12.7,58.3-25.1,87.6-37.5c4.3-1.9,9.1-2.1,13.6-0.8c-3,2.7-5.7,5.9-9,7.9c-52,31.6-104.1,63.1-156.3,94.5
		c-10.4,6.3-21,12.3-31.9,17.6c-8.5,4.1-8.1,9-4.6,16.6c14.1,30.3,27.7,60.9,42.2,92.9l-15.4,6.1c-9.2-22.4-16.5-44.7-27.1-65.3
		c-20.5-39.8-30-43.3-76-32.7c-21.8,5-42.5,14.9-63.2,23.8c-11.3,4.9-16.8,14.7-18.7,27.8c-5.9,40.2-41.4,55-73.1,31.3
		c-20.5-15.4-24.3-39.9-9.4-61.2c15.1-21.7,41.3-26.7,62.9-12.9c4.2,2.7,11.2,4.2,15.7,2.6c31.6-11.2,62.7-23.3,94-35.1
		c10.7-4,12-10.3,8.5-21.2C676,126,658.3,68.1,640.5,10.3c-1-3.3-1.2-6.8-1.8-10.3H644z M547.3,245.7c-16.8,0.2-29.5,13.4-29.1,30.3
		c0.4,16.2,18.3,33.2,34.8,33c14.6-0.2,29-16.8,28.9-33.4C581.8,258.7,566.5,245.5,547.3,245.7z"/>
	<path class="st0" d="M0,717.3c4.7,15.6,18,20.9,31.4,26.2H0V717.3z"/>
	<path class="st1" d="M501.1,582.7c-7.8,3.8-15.4,7.8-23.2,11.5c-18.4,8.7-37.8,10.1-57.6,7.5c-16.1-2.1-26.5-11.9-32.5-28.5
		c-28.5,28.1-62,34.5-98.6,29.6c-37.6-5.1-55.1-32.9-43.1-68.9c10.7-31.9,32.6-54.2,62.9-67.9c34.1-15.4,70.9-17.2,107.4-20.6
		c7.4-0.7,11.5-2,13.8-9.9c5.1-17.5,11.8-34.6,17.4-52c1.9-6.2,3.1-12.7,3.6-19.2c1.1-11.3-4.1-18.2-15.6-20.1
		c-16.8-2.8-32.1,1.8-46.3,10c-7.5,4.4-8.2,11.1-4.3,19.1c17.4,35.8-22.9,65.6-48.9,62.6c-17.9-2.1-28.2-14.6-25.1-32.5
		c2.7-16.6,12.1-31.4,26-40.8c49.6-34.4,104-41.4,160.7-22.9c33.1,10.8,44.2,35.2,33.5,68.4c-15.1,46.8-31.6,93.2-46.9,140
		c-2.6,8-1.7,17.2-2.4,25.8c7.8-3.4,15.6-7,23.5-10.2c3.5-1.4,7.3-2,11-3c-1.5,3.5-2.5,7.3-4.7,10.3c-3.2,4.4-7.2,8.1-10.8,12.1
		L501.1,582.7z M421.7,459.4c-33.1-4.1-55.4,8-67.1,36.4c-5.8,14-10.9,28.4-15.4,42.8c-2.8,8.7-4.5,17.6-5.2,26.7
		c-0.9,14.4,7.4,21.2,21.5,17.8c15.5-3.7,28-12,33.5-27.8c6.8-19.2,13.1-38.6,19.6-57.9C413,484.8,417.3,472.3,421.7,459.4z"/>
	<path class="st1" d="M500.8,583c8.2,0.5,16.4,1.5,24.5,1.1c2.5-0.1,6.2-3.4,7-6c25.1-73.2,49.9-146.5,75.4-221.7h-29.1
		c-1.6-12.2,4.5-13.2,12.9-13.5c33.9-1.4,67.8-3.2,101.7-5.3c6.3-0.4,12.6-2.5,21.1-4.3l-13.7,42.8l2.8,2.1
		c5.9-6.4,11.5-13.2,17.8-19.2c20.2-18.9,43.9-29.6,72-28.8c18.4,0.5,32.2,13.6,33.9,31.7c3.2,35.6-32.9,76.2-68.8,77.3
		c-25.7,0.8-40.5-15.4-33.4-39.9c4.1-14.1,13.8-26.6,21.2-39.7c1.3-2.4,3.6-4.2,7.9-9.2c-32.9,12.5-53.6,33.2-64.4,61.7
		c-19.2,50.9-36,102.6-53.8,154c-1.8,5.3-3.5,10.6-5.9,18h28.9c0.8,1.5,1.5,2.9,2.3,4.4c-3.3,3-6.7,8.5-10,8.5
		c-51.4,0.5-102.8,0.4-156.8,0.4c2.8-6,4.8-10.3,6.9-14.7C501.1,582.7,500.8,583,500.8,583z"/>
	<path class="st1" d="M249,301.3c-24.8,0.1-39.6-16.6-36.8-41.4c4-35.1,42.3-66.5,77.6-63.7c23.4,1.9,36.8,21.1,31.8,45.7
		C315.3,273.1,280.9,301.2,249,301.3z"/>
	<path class="st0" d="M942.4,459.8c-11.4,33.6-21.9,66.3-33.7,98.4c-5.5,15.1-19.1,22.3-34.2,25.4c-12.3,2.5-21.6-4.8-20.1-17.3
		c3.9-33.2,14.1-64.7,33.8-92.1C897.1,462,922.7,455.8,942.4,459.8z"/>
	<path class="st0" d="M547.3,245.7c19.2-0.2,34.5,13,34.5,29.9c0.1,16.6-14.3,33.2-28.9,33.4c-16.4,0.2-34.4-16.9-34.8-33
		C517.8,259.1,530.5,245.9,547.3,245.7z"/>
	<path class="st0" d="M421.7,459.4c-4.4,12.9-8.8,25.4-13,38c-6.5,19.3-12.8,38.7-19.6,57.9c-5.6,15.8-18,24.1-33.5,27.8
		c-14.1,3.4-22.4-3.3-21.5-17.8c0.7-9.1,2.4-18.1,5.2-26.7c4.5-14.5,9.6-28.8,15.4-42.9C366.4,467.5,388.7,455.4,421.7,459.4z"/>
</g>
<g class="st2">
	<path class="st1" d="M256,641h24.5c4.5,0,8.7,0.4,12.4,1.2c3.8,0.8,7,2,9.6,3.6c2.7,1.6,4.8,3.8,6.2,6.4c1.5,2.6,2.2,5.8,2.2,9.5
		c0,4.2-1.3,8-3.9,11.4c-2.6,3.4-6.5,5.8-11.8,7.1v0.5c6.5,1,11.6,3.1,15.2,6.5c3.6,3.4,5.4,8,5.4,13.8c0,4.1-0.8,7.8-2.4,10.9
		c-1.6,3.1-3.9,5.7-6.9,7.8c-2.9,2.1-6.5,3.6-10.6,4.7c-4.1,1-8.7,1.6-13.7,1.6H256V641z M278.5,677.2c7.6,0,13.1-1.2,16.4-3.8
		c3.3-2.5,5-6.1,5-10.9c0-4.7-1.7-8-5.2-10c-3.5-2-8.7-3-15.6-3h-11.7v27.7H278.5z M280.8,717.3c7.7,0,13.6-1.4,17.8-4.1
		c4.2-2.7,6.2-7,6.2-12.7c0-5.3-2-9.1-6.1-11.6c-4.1-2.5-10.1-3.7-17.9-3.7h-13.4v32.1H280.8z"/>
	<path class="st1" d="M380.3,700H348l-8.6,25.9h-11.5l30-84.9h12.8l30,84.9h-12L380.3,700z M377.4,691.3l-4.2-12.9
		c-1.5-4.7-3-9.5-4.5-14.2c-1.4-4.7-2.9-9.5-4.3-14.4h-0.5c-1.4,4.9-2.9,9.7-4.3,14.4c-1.4,4.7-2.9,9.4-4.5,14.2l-4.2,12.9H377.4z"
		/>
	<path class="st1" d="M467.2,725.9L445.8,690h-15.9v35.8h-11.3V641h27.7c4.5,0,8.7,0.4,12.5,1.2c3.8,0.8,7.1,2.2,9.8,4.1
		c2.8,1.9,4.9,4.4,6.5,7.4c1.5,3,2.3,6.7,2.3,11.1c0,6.6-1.8,11.9-5.4,15.9c-3.6,4-8.5,6.7-14.5,8.2l22.7,37H467.2z M429.9,681.2
		h14.8c7,0,12.3-1.4,16-4.1c3.7-2.7,5.5-6.8,5.5-12.4c0-5.6-1.8-9.5-5.5-11.8c-3.7-2.2-9-3.4-16-3.4h-14.8V681.2z"/>
	<path class="st1" d="M500.5,641h24.5c4.5,0,8.7,0.4,12.4,1.2c3.8,0.8,7,2,9.6,3.6c2.7,1.6,4.8,3.8,6.2,6.4c1.5,2.6,2.2,5.8,2.2,9.5
		c0,4.2-1.3,8-3.9,11.4c-2.6,3.4-6.5,5.8-11.8,7.1v0.5c6.5,1,11.6,3.1,15.2,6.5c3.6,3.4,5.4,8,5.4,13.8c0,4.1-0.8,7.8-2.4,10.9
		c-1.6,3.1-3.9,5.7-6.9,7.8c-2.9,2.1-6.5,3.6-10.6,4.7c-4.1,1-8.7,1.6-13.7,1.6h-26.5V641z M523,677.2c7.6,0,13.1-1.2,16.4-3.8
		c3.3-2.5,5-6.1,5-10.9c0-4.7-1.7-8-5.2-10c-3.5-2-8.7-3-15.6-3h-11.7v27.7H523z M525.4,717.3c7.7,0,13.6-1.4,17.8-4.1
		c4.2-2.7,6.2-7,6.2-12.7c0-5.3-2-9.1-6.1-11.6c-4.1-2.5-10.1-3.7-17.9-3.7h-13.4v32.1H525.4z"/>
	<path class="st1" d="M583.6,641h55v9.1H595v26.7h36.8v9.2H595v30.8h45v9.2h-56.4V641z"/>
	<path class="st1" d="M711.7,725.9L690.3,690h-15.9v35.8h-11.3V641h27.7c4.5,0,8.7,0.4,12.5,1.2c3.8,0.8,7.1,2.2,9.8,4.1
		c2.8,1.9,4.9,4.4,6.5,7.4c1.5,3,2.3,6.7,2.3,11.1c0,6.6-1.8,11.9-5.4,15.9c-3.6,4-8.5,6.7-14.5,8.2l22.7,37H711.7z M674.4,681.2
		h14.8c7,0,12.3-1.4,16-4.1s5.5-6.8,5.5-12.4c0-5.6-1.8-9.5-5.5-11.8c-3.7-2.2-9-3.4-16-3.4h-14.8V681.2z"/>
	<path class="st1" d="M746.9,707.4c3.3,3.2,7.2,5.8,11.7,7.7c4.4,1.9,9.1,2.9,14,2.9c6.3,0,11.2-1.3,14.7-3.8
		c3.4-2.5,5.2-5.9,5.2-10c0-2.2-0.4-4-1.2-5.5c-0.8-1.5-1.9-2.8-3.4-3.9c-1.4-1.1-3.1-2-5.1-2.9c-1.9-0.9-4.1-1.8-6.3-2.7l-12.8-5.3
		c-2.3-0.9-4.5-1.9-6.8-3.1c-2.3-1.2-4.3-2.7-6.2-4.4c-1.9-1.7-3.4-3.8-4.6-6.1c-1.2-2.4-1.8-5.1-1.8-8.2c0-3.2,0.7-6.2,2.2-8.9
		c1.4-2.8,3.5-5.2,6-7.2c2.6-2,5.7-3.6,9.2-4.7c3.6-1.1,7.5-1.7,11.8-1.7c5.6,0,10.8,1,15.5,2.9c4.7,1.9,8.7,4.5,12,7.6l-6,7
		c-2.9-2.5-6.1-4.5-9.6-5.9c-3.5-1.4-7.5-2.1-11.9-2.1c-5.4,0-9.7,1.1-12.9,3.3c-3.2,2.2-4.8,5.2-4.8,9.1c0,2.1,0.5,3.8,1.4,5.2
		c1,1.4,2.2,2.7,3.7,3.8c1.5,1.1,3.2,2,5.1,2.8c1.9,0.8,3.8,1.6,5.7,2.3l12.5,5.2c2.7,1,5.3,2.2,7.7,3.6c2.4,1.3,4.5,2.9,6.2,4.7
		c1.8,1.8,3.2,3.8,4.2,6.2c1,2.4,1.6,5.1,1.6,8.2c0,3.4-0.7,6.5-2.2,9.4c-1.4,2.9-3.5,5.5-6.2,7.7s-6,3.9-9.9,5.2
		c-3.9,1.2-8.3,1.9-13.2,1.9c-6.5,0-12.5-1.1-18-3.4c-5.5-2.2-10.3-5.3-14.3-9.2L746.9,707.4z"/>
	<path class="st1" d="M823.2,641h11.4v35.6h37.2V641h11.4v84.9h-11.4v-40h-37.2v40h-11.4V641z"/>
	<path class="st1" d="M934.8,727.4c-5.1,0-9.7-1-13.9-3.1c-4.2-2.1-7.8-5-10.8-8.9c-3-3.8-5.4-8.5-7.1-14
		c-1.7-5.5-2.5-11.6-2.5-18.4c0-6.8,0.8-12.9,2.5-18.3c1.7-5.4,4-10,7.1-13.7c3-3.8,6.6-6.6,10.8-8.6c4.2-2,8.8-3,13.9-3
		c5,0,9.6,1,13.8,3c4.2,2,7.8,4.9,10.9,8.7c3,3.8,5.4,8.3,7.1,13.7c1.7,5.4,2.5,11.4,2.5,18.2c0,6.8-0.8,13-2.5,18.4
		c-1.7,5.5-4,10.1-7.1,14c-3,3.8-6.7,6.8-10.9,8.9C944.3,726.4,939.7,727.4,934.8,727.4z M934.8,718c3.3,0,6.4-0.8,9.2-2.5
		c2.8-1.6,5.2-4,7.1-7.1c1.9-3.1,3.5-6.7,4.6-11c1.1-4.3,1.6-9.1,1.6-14.4c0-5.3-0.5-10-1.6-14.2c-1.1-4.2-2.6-7.8-4.6-10.7
		c-1.9-2.9-4.3-5.2-7.1-6.8c-2.8-1.6-5.9-2.4-9.2-2.4c-3.4,0-6.5,0.8-9.3,2.4c-2.8,1.6-5.1,3.9-7.1,6.8c-1.9,2.9-3.5,6.5-4.6,10.7
		c-1.1,4.2-1.6,9-1.6,14.2c0,5.3,0.5,10.2,1.6,14.4c1.1,4.3,2.6,7.9,4.6,11c1.9,3.1,4.3,5.4,7.1,7.1
		C928.2,717.2,931.3,718,934.8,718z"/>
	<path class="st1" d="M989.4,641h27.3c4.9,0,9.4,0.4,13.4,1.3c4.1,0.9,7.5,2.3,10.4,4.2s5.1,4.5,6.7,7.7c1.6,3.2,2.4,7.1,2.4,11.8
		c0,4.5-0.8,8.4-2.4,11.6c-1.6,3.3-3.8,6-6.7,8.2c-2.9,2.2-6.4,3.8-10.4,4.9c-4,1.1-8.5,1.6-13.4,1.6h-16v33.6h-11.3V641z
		 M1015.2,683.4c7.9,0,13.7-1.4,17.5-4.2c3.8-2.8,5.6-7.2,5.6-13.3c0-6.1-1.9-10.4-5.8-12.7c-3.9-2.4-9.6-3.6-17.3-3.6h-14.5v33.8
		H1015.2z"/>
</g>
</svg>
